<?xml version="1.0" encoding="utf-8"?>
<!-- Svg Vector Icons : http://www.onlinewebfonts.com/icon -->
<!DOCTYPE svg PUBLIC "-//W3C//DTD SVG 1.1//EN" "http://www.w3.org/Graphics/SVG/1.1/DTD/svg11.dtd">
<svg version="1.1" xmlns="http://www.w3.org/2000/svg" xmlns:xlink="http://www.w3.org/1999/xlink" x="0px" y="0px" viewBox="0 0 256 256" enable-background="new 0 0 256 256" xml:space="preserve">
<metadata> Svg Vector Icons : http://www.onlinewebfonts.com/icon </metadata>
<g><g><g><path fill="#000000" d="M43.1,56c0,42.8-0.1,40.7,3,41.8l1.6,0.6v5v5.1l-2.3-0.3c-4.7-0.6-9.7-4.5-11.3-9c-0.6-1.8-0.8-4.5-1.1-16l-0.3-13.8l-2,1.8c-3.6,3.2-6,7.2-12.3,21c-7.4,16-8.1,17.9-8.4,23.1c-0.6,10.5,5,21,14,26c1.7,1,19.6,9.4,39.6,18.7l36.4,16.9l0.8-1.5c2.9-5.4,34.5-74.2,34.2-74.3c-0.2-0.1-18.4-8.5-40.3-18.7L54.9,63.8l-0.1-23.2l-0.1-23.2h-5.8h-5.8V56z M103.8,99.7c6.6,3.1,12.4,5.9,12.8,6.3c0.4,0.4,0.8,1.1,0.8,1.6c0,1.2-1.3,2.6-2.3,2.6c-0.4,0-6.4-2.6-13.4-5.9c-13.6-6.3-14.3-6.8-12.8-9.1c0.5-0.6,1.2-1.2,1.8-1.2C91.4,94.1,97.2,96.6,103.8,99.7z M98.5,112.3c7.5,3.5,12.5,6.1,12.9,6.7c0.5,0.8,0.5,1.2,0.1,2.1c-1,2.2-1.8,2-14.5-3.9c-6.6-3.1-12.5-5.9-13.1-6.3c-0.7-0.4-1.1-1.1-1.1-1.9c0-1.6,0.7-2.4,2.3-2.4C85.8,106.5,91.8,109.1,98.5,112.3z M92.2,124.4c6.9,3.2,12.8,6,13.1,6.3c1,0.8,0.6,3-0.6,3.8c-1.1,0.7-1.4,0.6-8.4-2.6c-19.6-9-20-9.3-19.3-11.4c0.2-0.6,1.4-1.6,2.4-1.8C79.5,118.5,85.2,121.2,92.2,124.4z"/><path fill="#000000" d="M163.4,100.6c-10.7,2.5-19.4,4.6-19.5,4.7c0,0-8,17.1-17.7,37.8l-17.6,37.7l9,17.9c6,12,9.4,18.3,10.2,18.9c2.2,1.7,5.1,1.1,7.6-1.7c1.4-1.5,52-109.7,52.6-112.5c0.6-2.6-0.3-5.2-2.4-6.5c-0.9-0.6-1.9-1.1-2.3-1C183,96,174,98.1,163.4,100.6z"/><path fill="#000000" d="M231.2,124.3c-2.2,0.6-4.5,1.4-5.1,1.8c-2.9,1.9-2.5,6.6,0.7,8.4l1.7,0.9l4.5-1.1c5.8-1.4,7.4-2.7,7.4-5.8c0-1.6-0.3-2.4-1.2-3.3C237.3,123.3,235.8,123.2,231.2,124.3z"/><path fill="#000000" d="M200.9,131.9c-6.7,1.7-12.7,3.4-13.2,3.7c-1.2,0.6-2.4,2.8-2.4,4.3c0,1.8,1.9,4.2,3.8,4.7c1.4,0.4,3.7,0,14.3-2.8c11.4-2.9,12.7-3.3,14.1-4.7c2.5-2.4,1.9-6.1-1.3-7.8c-0.7-0.4-1.7-0.7-2.2-0.6C213.5,128.7,207.7,130.2,200.9,131.9z"/><path fill="#000000" d="M177.1,162.6c-3,1.3-3.7,5.8-1.4,8c1.3,1.2,33.4,14.9,34.9,14.9c1.7,0,3.9-1.5,4.6-3.2c0.7-1.8,0-4.8-1.5-5.8c-1.6-1-32.5-14.1-33.9-14.3C179.1,162,177.8,162.2,177.1,162.6z"/><path fill="#000000" d="M226,183.4c-3,1.2-3.8,5.3-1.6,7.6c1.5,1.7,14.6,7.4,17,7.4c3.6,0,5.9-4.5,4-7.6c-0.7-1.2-2.3-2-8.7-4.8c-4.3-1.8-8.2-3.3-8.5-3.3C227.7,182.7,226.8,183,226,183.4z"/><path fill="#000000" d="M168.3,191.3c-1.8,0.3-3.5,2.7-3.6,4.6c0,2.1,2.9,7.6,4.7,8.8c3.1,2.1,7.7-0.3,7.7-3.9c0-2-3-7.7-4.5-8.7C171.4,191.3,169.6,191,168.3,191.3z"/><path fill="#000000" d="M179.4,213.5c-1.7,1-2.7,3.2-2.4,5c0.1,0.7,2.5,5.2,5.3,10c5.2,9.1,6,10,9,10c2.2,0,4.6-2.6,4.6-4.9c0-2.4-9.2-18.8-11.3-20.1C182.8,212.4,181.2,212.4,179.4,213.5z"/></g></g></g>
</svg>