# Blender v2.80 (sub 75) OBJ File: ''
# www.blender.org
mtllib cone.mtl
o Cone
v 0.000000 -1.000000 -1.000000
v 0.195090 -1.000000 -0.980785
v 0.382683 -1.000000 -0.923880
v 0.555570 -1.000000 -0.831470
v 0.707107 -1.000000 -0.707107
v 0.831470 -1.000000 -0.555570
v 0.923880 -1.000000 -0.382683
v 0.980785 -1.000000 -0.195090
v 1.000000 -1.000000 -0.000000
v 0.980785 -1.000000 0.195090
v 0.923880 -1.000000 0.382683
v 0.831470 -1.000000 0.555570
v 0.707107 -1.000000 0.707107
v 0.555570 -1.000000 0.831470
v 0.382683 -1.000000 0.923880
v 0.195090 -1.000000 0.980785
v -0.000000 -1.000000 1.000000
v -0.195091 -1.000000 0.980785
v -0.382684 -1.000000 0.923879
v -0.555571 -1.000000 0.831469
v -0.707107 -1.000000 0.707106
v -0.831470 -1.000000 0.555570
v -0.923880 -1.000000 0.382683
v 0.000000 1.000000 0.000000
v -0.980785 -1.000000 0.195089
v -1.000000 -1.000000 -0.000001
v -0.980785 -1.000000 -0.195091
v -0.923879 -1.000000 -0.382684
v -0.831469 -1.000000 -0.555571
v -0.707106 -1.000000 -0.707108
v -0.555569 -1.000000 -0.831470
v -0.382682 -1.000000 -0.923880
v -0.195089 -1.000000 -0.980786
vt 0.462304 0.398711
vt 0.757901 0.000000
vt 0.491955 0.422495
vt 0.526589 0.444324
vt 0.564873 0.463358
vt 0.605339 0.478866
vt 0.646429 0.490251
vt 0.686565 0.497078
vt 0.724205 0.499082
vt 0.757901 0.496187
vt 0.000000 0.843968
vt 0.293186 0.448511
vt 0.025146 0.867079
vt 0.056328 0.888721
vt 0.092350 0.908060
vt 0.131826 0.924354
vt 0.173240 0.936977
vt 0.214999 0.945444
vt 0.255500 0.949429
vt 0.293186 0.948780
vt 0.731960 0.917650
vt 1.000000 0.499082
vt 0.763143 0.939291
vt 0.799165 0.958631
vt 0.838641 0.974925
vt 0.880054 0.987548
vt 0.921814 0.996015
vt 0.962315 1.000000
vt 1.000000 0.999350
vt 0.731960 0.499731
vt 0.731960 1.000000
vt 0.694275 0.499082
vt 0.653774 0.503067
vt 0.612015 0.511533
vt 0.570601 0.524157
vt 0.531125 0.540451
vt 0.495103 0.559790
vt 0.463920 0.581431
vt 0.438775 0.604543
vt 0.438775 0.373885
vt 0.000000 0.246343
vt 0.000000 0.202168
vt 0.008431 0.158843
vt 0.024969 0.118031
vt 0.048978 0.081301
vt 0.079536 0.050065
vt 0.115468 0.025523
vt 0.155394 0.008618
vt 0.197780 0.000000
vt 0.240995 0.000000
vt 0.283380 0.008618
vt 0.323306 0.025523
vt 0.359239 0.050065
vt 0.389797 0.081301
vt 0.413806 0.118031
vt 0.430344 0.158842
vt 0.438775 0.202168
vt 0.438775 0.246343
vt 0.430344 0.289668
vt 0.413806 0.330480
vt 0.389797 0.367210
vt 0.359239 0.398446
vt 0.323306 0.422988
vt 0.283380 0.439893
vt 0.240995 0.448511
vt 0.197779 0.448511
vt 0.155394 0.439893
vt 0.115468 0.422988
vt 0.079536 0.398446
vt 0.048978 0.367210
vt 0.024969 0.330480
vt 0.008431 0.289668
vn 0.0878 0.4455 -0.8910
vn 0.2599 0.4455 -0.8567
vn 0.4220 0.4455 -0.7896
vn 0.5680 0.4455 -0.6921
vn 0.6921 0.4455 -0.5680
vn 0.7896 0.4455 -0.4220
vn 0.8567 0.4455 -0.2599
vn 0.8910 0.4455 -0.0878
vn 0.8910 0.4455 0.0878
vn 0.8567 0.4455 0.2599
vn 0.7896 0.4455 0.4220
vn 0.6921 0.4455 0.5680
vn 0.5680 0.4455 0.6921
vn 0.4220 0.4455 0.7896
vn 0.2599 0.4455 0.8567
vn 0.0878 0.4455 0.8910
vn -0.0878 0.4455 0.8910
vn -0.2599 0.4455 0.8567
vn -0.4220 0.4455 0.7896
vn -0.5680 0.4455 0.6921
vn -0.6921 0.4455 0.5680
vn -0.7896 0.4455 0.4220
vn -0.8567 0.4455 0.2599
vn -0.8910 0.4455 0.0878
vn -0.8910 0.4455 -0.0878
vn -0.8567 0.4455 -0.2599
vn -0.7896 0.4455 -0.4220
vn -0.6921 0.4455 -0.5680
vn -0.5680 0.4455 -0.6921
vn -0.4220 0.4455 -0.7896
vn -0.2599 0.4455 -0.8567
vn -0.0878 0.4455 -0.8910
vn 0.0000 -1.0000 -0.0000
usemtl None
s off
f 1/1/1 24/2/1 2/3/1
f 2/3/2 24/2/2 3/4/2
f 3/4/3 24/2/3 4/5/3
f 4/5/4 24/2/4 5/6/4
f 5/6/5 24/2/5 6/7/5
f 6/7/6 24/2/6 7/8/6
f 7/8/7 24/2/7 8/9/7
f 8/9/8 24/2/8 9/10/8
f 9/11/9 24/12/9 10/13/9
f 10/13/10 24/12/10 11/14/10
f 11/14/11 24/12/11 12/15/11
f 12/15/12 24/12/12 13/16/12
f 13/16/13 24/12/13 14/17/13
f 14/17/14 24/12/14 15/18/14
f 15/18/15 24/12/15 16/19/15
f 16/19/16 24/12/16 17/20/16
f 17/21/17 24/22/17 18/23/17
f 18/23/18 24/22/18 19/24/18
f 19/24/19 24/22/19 20/25/19
f 20/25/20 24/22/20 21/26/20
f 21/26/21 24/22/21 22/27/21
f 22/27/22 24/22/22 23/28/22
f 23/28/23 24/22/23 25/29/23
f 25/30/24 24/31/24 26/32/24
f 26/32/25 24/31/25 27/33/25
f 27/33/26 24/31/26 28/34/26
f 28/34/27 24/31/27 29/35/27
f 29/35/28 24/31/28 30/36/28
f 30/36/29 24/31/29 31/37/29
f 31/37/30 24/31/30 32/38/30
f 32/38/31 24/31/31 33/39/31
f 33/40/32 24/2/32 1/1/32
f 1/41/33 2/42/33 3/43/33 4/44/33 5/45/33 6/46/33 7/47/33 8/48/33 9/49/33 10/50/33 11/51/33 12/52/33 13/53/33 14/54/33 15/55/33 16/56/33 17/57/33 18/58/33 19/59/33 20/60/33 21/61/33 22/62/33 23/63/33 25/64/33 26/65/33 27/66/33 28/67/33 29/68/33 30/69/33 31/70/33 32/71/33 33/72/33
