# Blender v2.83.4 OBJ File: ''
# www.blender.org
mtllib cube.mtl
o Cube_Scene.002
v -0.500000 -0.500000 0.500000
v 0.500000 -0.500000 0.500000
v -0.500000 0.500000 0.500000
v 0.500000 0.500000 0.500000
v -0.500000 0.500000 -0.500000
v 0.500000 0.500000 -0.500000
v -0.500000 -0.500000 -0.500000
v 0.500000 -0.500000 -0.500000
vt 0.000000 0.000000
vt 1.000000 1.000000
vt 0.000000 1.000000
vt 1.000000 0.000000
vt 0.000000 0.000000
vt 1.000000 1.000000
vt 0.000000 1.000000
vt 1.000000 0.000000
vt 0.000000 0.000000
vt 1.000000 1.000000
vt 0.000000 1.000000
vt 1.000000 0.000000
vt 0.000000 0.000000
vt 1.000000 1.000000
vt 0.000000 1.000000
vt 1.000000 0.000000
vt 0.000000 0.000000
vt 0.000000 1.000000
vt 1.000000 1.000000
vt 1.000000 0.000000
vn 0.0000 -0.0000 1.0000
vn 0.0000 1.0000 0.0000
vn 0.0000 0.0000 -1.0000
vn 0.0000 -1.0000 -0.0000
vn 1.0000 0.0000 0.0000
vn -1.0000 0.0000 0.0000
usemtl Lit.002
s 1
f 1/1/1 4/2/1 3/3/1
f 1/1/1 2/4/1 4/2/1
f 3/5/2 6/6/2 5/7/2
f 3/5/2 4/8/2 6/6/2
f 5/9/3 8/10/3 7/11/3
f 5/9/3 6/12/3 8/10/3
f 7/13/4 2/14/4 1/15/4
f 7/13/4 8/16/4 2/14/4
f 2/17/5 6/6/5 4/18/5
f 2/17/5 8/16/5 6/6/5
f 7/13/6 3/19/6 5/7/6
f 7/13/6 1/20/6 3/19/6
