# Blender v2.83.4 OBJ File: ''
# www.blender.org
mtllib cylinder.mtl
o Cylinder__1__Scene
v 0.475529 -1.000000 -0.154509
v 0.475529 1.000000 -0.154508
v 0.404509 1.000000 -0.293893
v 0.404509 -1.000000 -0.293893
v 0.293893 1.000000 -0.404509
v 0.293893 -1.000000 -0.404509
v 0.154509 1.000000 -0.475528
v 0.154509 -1.000000 -0.475529
v 0.000000 1.000000 -0.500000
v 0.000000 -1.000000 -0.500000
v -0.154509 1.000000 -0.475528
v -0.154509 -1.000000 -0.475529
v -0.293893 1.000000 -0.404509
v -0.293893 -1.000000 -0.404509
v -0.404509 1.000000 -0.293893
v -0.404509 -1.000000 -0.293893
v -0.475528 1.000000 -0.154508
v -0.475528 -1.000000 -0.154509
v -0.500000 1.000000 0.000000
v -0.500000 -1.000000 -0.000000
v -0.475528 1.000000 0.154509
v -0.475528 -1.000000 0.154508
v -0.404509 1.000000 0.293893
v -0.404509 -1.000000 0.293893
v -0.293893 1.000000 0.404509
v -0.293893 -1.000000 0.404508
v -0.154509 1.000000 0.475528
v -0.154509 -1.000000 0.475528
v -0.000000 1.000000 0.500000
v -0.000000 -1.000000 0.500000
v 0.154508 1.000000 0.475528
v 0.154508 -1.000000 0.475528
v 0.293893 1.000000 0.404509
v 0.293893 -1.000000 0.404508
v 0.404509 1.000000 0.293893
v 0.404509 -1.000000 0.293893
v 0.475528 1.000000 0.154509
v 0.475528 -1.000000 0.154508
v 0.500000 1.000000 0.000000
v 0.500000 -1.000000 -0.000000
v 0.000000 -1.000000 -0.000000
v 0.000000 1.000000 0.000000
vt 0.100600 0.000454
vt 0.200505 0.999431
vt 0.100600 0.999431
vt 0.200505 0.000454
vt 0.300411 0.999431
vt 0.300411 0.000454
vt 0.400317 0.999431
vt 0.400317 0.000454
vt 0.500222 0.999431
vt 0.500222 0.000454
vt 0.600127 0.999431
vt 0.600127 0.000454
vt 0.700033 0.999431
vt 0.700033 0.000454
vt 0.799938 0.999431
vt 0.799938 0.000454
vt 0.899843 0.999431
vt 0.899843 0.000454
vt 0.999749 0.999431
vt 0.999749 0.000454
vt 0.000694 0.000454
vt 0.100600 0.999431
vt 0.000694 0.999431
vt 0.100599 0.000454
vt 0.200505 0.999431
vt 0.200505 0.000454
vt 0.300411 0.999431
vt 0.300411 0.000454
vt 0.400316 0.999431
vt 0.400316 0.000454
vt 0.500221 0.999431
vt 0.500221 0.000454
vt 0.600127 0.999431
vt 0.600127 0.000454
vt 0.700032 0.999431
vt 0.700032 0.000454
vt 0.799937 0.999431
vt 0.799937 0.000454
vt 0.899842 0.999431
vt 0.899843 0.000454
vt 0.999748 0.999431
vt 0.999748 0.000454
vt 0.000694 0.000454
vt 0.000694 0.999431
vt 0.098857 0.791554
vt 0.028389 0.653252
vt 0.500224 0.499944
vt 0.208614 0.901311
vt 0.004108 0.499944
vt 0.346915 0.971779
vt 0.028389 0.346636
vt 0.500224 0.996061
vt 0.098857 0.208335
vt 0.653533 0.971779
vt 0.208614 0.098578
vt 0.791834 0.901311
vt 0.346915 0.028110
vt 0.901591 0.791554
vt 0.500223 0.003828
vt 0.972059 0.653252
vt 0.653532 0.028109
vt 0.996340 0.499944
vt 0.791834 0.098578
vt 0.972059 0.346635
vt 0.901590 0.208334
vt 0.972060 0.653252
vt 0.901591 0.791554
vt 0.500224 0.499944
vt 0.996341 0.499944
vt 0.791835 0.901311
vt 0.972059 0.346636
vt 0.653533 0.971779
vt 0.901591 0.208334
vt 0.500224 0.996061
vt 0.791834 0.098578
vt 0.346916 0.971779
vt 0.653533 0.028109
vt 0.208614 0.901311
vt 0.500224 0.003828
vt 0.098858 0.791554
vt 0.346916 0.028109
vt 0.028390 0.653252
vt 0.208614 0.098578
vt 0.004108 0.499944
vt 0.098858 0.208334
vt 0.028390 0.346636
vn 0.9511 0.0000 -0.3090
vn 0.8090 0.0000 -0.5878
vn 0.5878 0.0000 -0.8090
vn 0.3090 0.0000 -0.9511
vn -0.0000 0.0000 -1.0000
vn -0.3090 0.0000 -0.9511
vn -0.5878 0.0000 -0.8090
vn -0.8090 0.0000 -0.5878
vn -0.9511 0.0000 -0.3090
vn -1.0000 0.0000 0.0000
vn -0.9511 -0.0000 0.3090
vn -0.8090 -0.0000 0.5878
vn -0.5878 -0.0000 0.8090
vn -0.3090 -0.0000 0.9511
vn 0.0000 -0.0000 1.0000
vn 0.3090 -0.0000 0.9511
vn 0.5878 -0.0000 0.8090
vn 0.8090 -0.0000 0.5878
vn 0.9511 -0.0000 0.3090
vn 1.0000 -0.0000 0.0000
vn -0.0000 -1.0000 0.0000
vn 0.0000 1.0000 0.0000
usemtl Lit
s 1
f 1/1/1 3/2/2 2/3/1
f 1/1/1 4/4/2 3/2/2
f 4/4/2 5/5/3 3/2/2
f 4/4/2 6/6/3 5/5/3
f 6/6/3 7/7/4 5/5/3
f 6/6/3 8/8/4 7/7/4
f 8/8/4 9/9/5 7/7/4
f 8/8/4 10/10/5 9/9/5
f 10/10/5 11/11/6 9/9/5
f 10/10/5 12/12/6 11/11/6
f 12/12/6 13/13/7 11/11/6
f 12/12/6 14/14/7 13/13/7
f 14/14/7 15/15/8 13/13/7
f 14/14/7 16/16/8 15/15/8
f 16/16/8 17/17/9 15/15/8
f 16/16/8 18/18/9 17/17/9
f 18/18/9 19/19/10 17/17/9
f 18/18/9 20/20/10 19/19/10
f 20/21/10 21/22/11 19/23/10
f 20/21/10 22/24/11 21/22/11
f 22/24/11 23/25/12 21/22/11
f 22/24/11 24/26/12 23/25/12
f 24/26/12 25/27/13 23/25/12
f 24/26/12 26/28/13 25/27/13
f 26/28/13 27/29/14 25/27/13
f 26/28/13 28/30/14 27/29/14
f 28/30/14 29/31/15 27/29/14
f 28/30/14 30/32/15 29/31/15
f 30/32/15 31/33/16 29/31/15
f 30/32/15 32/34/16 31/33/16
f 32/34/16 33/35/17 31/33/16
f 32/34/16 34/36/17 33/35/17
f 34/36/17 35/37/18 33/35/17
f 34/36/17 36/38/18 35/37/18
f 36/38/18 37/39/19 35/37/18
f 36/38/18 38/40/19 37/39/19
f 38/40/19 39/41/20 37/39/19
f 38/40/19 40/42/20 39/41/20
f 40/43/20 2/3/1 39/44/20
f 40/43/20 1/1/1 2/3/1
f 4/45/21 1/46/21 41/47/21
f 6/48/21 4/45/21 41/47/21
f 1/46/21 40/49/21 41/47/21
f 8/50/21 6/48/21 41/47/21
f 40/49/21 38/51/21 41/47/21
f 10/52/21 8/50/21 41/47/21
f 38/51/21 36/53/21 41/47/21
f 12/54/21 10/52/21 41/47/21
f 36/53/21 34/55/21 41/47/21
f 14/56/21 12/54/21 41/47/21
f 34/55/21 32/57/21 41/47/21
f 16/58/21 14/56/21 41/47/21
f 32/57/21 30/59/21 41/47/21
f 18/60/21 16/58/21 41/47/21
f 30/59/21 28/61/21 41/47/21
f 20/62/21 18/60/21 41/47/21
f 28/61/21 26/63/21 41/47/21
f 22/64/21 20/62/21 41/47/21
f 26/63/21 24/65/21 41/47/21
f 24/65/21 22/64/21 41/47/21
f 2/66/22 3/67/22 42/68/22
f 39/69/22 2/66/22 42/68/22
f 3/67/22 5/70/22 42/68/22
f 37/71/22 39/69/22 42/68/22
f 5/70/22 7/72/22 42/68/22
f 35/73/22 37/71/22 42/68/22
f 7/72/22 9/74/22 42/68/22
f 33/75/22 35/73/22 42/68/22
f 9/74/22 11/76/22 42/68/22
f 31/77/22 33/75/22 42/68/22
f 11/76/22 13/78/22 42/68/22
f 29/79/22 31/77/22 42/68/22
f 13/78/22 15/80/22 42/68/22
f 27/81/22 29/79/22 42/68/22
f 15/80/22 17/82/22 42/68/22
f 25/83/22 27/81/22 42/68/22
f 17/82/22 19/84/22 42/68/22
f 23/85/22 25/83/22 42/68/22
f 19/84/22 21/86/22 42/68/22
f 21/86/22 23/85/22 42/68/22
